<svg xmlns="http://www.w3.org/2000/svg" viewBox="0 0 192 192">
  <rect width="192" height="192" rx="38" fill="#16a34a"/>
  <g transform="translate(96,96)">
    <path d="M-4-52 C24-52 50-28 50 4 C50 36 24 56 -4 56 C-32 56 -56 36 -56 4 C-56-28-32-52-4-52Z" fill="#ffffff" opacity="0.18"/>
    <path d="M-4-46 C18-30 42-8 42 14 C42 38 20 52 -4 52" stroke="#ffffff" stroke-width="4" fill="none" stroke-linecap="round" opacity="0.7"/>
    <path d="M-4-46 C-28-30 -50-8 -50 14 C-50 38 -28 52 -4 52" stroke="#ffffff" stroke-width="3" fill="none" stroke-linecap="round" opacity="0.45"/>
    <line x1="-4" y1="-46" x2="-4" y2="52" stroke="#ffffff" stroke-width="3" stroke-linecap="round" opacity="0.65"/>
    <line x1="-4" y1="52" x2="-4" y2="72" stroke="#ffffff" stroke-width="7" stroke-linecap="round"/>
  </g>
</svg>
